<svg width="44" height="46" viewBox="0 0 44 46" fill="none" xmlns="http://www.w3.org/2000/svg">
<path d="M7.5034 42.4381C6.89767 42.7544 6.66306 43.5019 6.97939 44.1076C7.29573 44.7133 8.0432 44.9479 8.64893 44.6316L7.5034 42.4381ZM33.2047 2.00366L34.3168 1.46124C34.1498 1.11896 33.8346 0.872619 33.4621 0.793403C33.0896 0.714188 32.7014 0.81092 32.4096 1.05565L33.2047 2.00366ZM6.02486 14.095L5.19867 13.1739C5.1782 13.1923 5.15835 13.2113 5.13915 13.231L6.02486 14.095ZM13.7173 39.3292L14.3101 38.2431C14.2634 38.2176 14.2152 38.1952 14.1657 38.1759L13.7173 39.3292ZM41.6248 30.7807L42.8501 30.9529C42.8509 30.9471 42.8517 30.9413 42.8524 30.9355L41.6248 30.7807ZM13.5292 16.3386C13.0262 15.876 12.2434 15.9088 11.7809 16.4118C11.3183 16.9147 11.3511 17.6975 11.8541 18.1601L13.5292 16.3386ZM24.9124 11.7116C24.4671 11.1933 23.6859 11.1341 23.1676 11.5794C22.6492 12.0246 22.59 12.8058 23.0353 13.3242L24.9124 11.7116ZM33.2775 32.7585C33.7134 33.2848 34.4934 33.358 35.0197 32.9221C35.5459 32.4862 35.6192 31.7062 35.1833 31.1799L33.2775 32.7585ZM23.9738 29.23L22.9793 28.4939L23.9738 29.23ZM32.4096 1.05565C31.1679 2.09707 29.4411 2.925 27.3134 3.6896C25.1845 4.45464 22.7933 5.11073 20.2225 5.878C15.1625 7.38818 9.5291 9.28963 5.19867 13.1739L6.85104 15.0161C10.7259 11.5405 15.8619 9.76195 20.9302 8.24929C23.4235 7.50515 25.9362 6.8141 28.1503 6.01844C30.3657 5.22232 32.4209 4.27597 33.9998 2.95167L32.4096 1.05565ZM5.13915 13.231C2.0512 16.3966 0.125083 21.6493 0.956531 26.9054C1.80226 32.2518 5.47071 37.4501 13.2689 40.4824L14.1657 38.1759C7.09183 35.4253 4.09353 30.898 3.40078 26.5188C2.69375 22.0492 4.35743 17.5763 6.91056 14.959L5.13915 13.231ZM13.1244 40.4152C22.4993 45.5324 29.5721 46.1054 34.5851 43.7233C39.5965 41.3422 42.1103 36.2185 42.8501 30.9529L40.3996 30.6086C39.7242 35.415 37.5026 39.5973 33.5231 41.4882C29.5453 43.3783 23.3719 43.1894 14.3101 38.2431L13.1244 40.4152ZM8.64893 44.6316C12.2711 42.74 16.9647 39.2051 21.3462 34.378L19.5138 32.7148C15.2982 37.3591 10.8303 40.7006 7.5034 42.4381L8.64893 44.6316ZM11.8541 18.1601C13.6026 19.7681 16.0746 22.489 17.791 25.3847C18.6487 26.8319 19.2871 28.2716 19.5747 29.6007C19.8612 30.9247 19.7848 32.0608 19.3211 32.9974L21.5389 34.0953C22.3244 32.5085 22.3579 30.762 21.9933 29.0773C21.6299 27.3978 20.8563 25.703 19.9198 24.1229C18.0475 20.9642 15.401 18.06 13.5292 16.3386L11.8541 18.1601ZM29.8503 22.003C32.7489 16.1351 34.6222 9.37736 34.4417 1.9735L31.9678 2.03383C32.137 8.97342 30.3835 15.3362 27.6316 20.907L29.8503 22.003ZM23.0353 13.3242C23.9858 14.4307 25.3535 16.1889 26.3652 17.8527C26.8739 18.6893 27.2622 19.453 27.4731 20.0696C27.7132 20.7717 27.6084 20.9505 27.6454 20.8799L29.8365 22.0301C30.3151 21.1184 30.0798 20.0442 29.8146 19.2688C29.5202 18.408 29.0285 17.4697 28.4796 16.567C27.3763 14.7524 25.9188 12.8832 24.9124 11.7116L23.0353 13.3242ZM21.3462 34.378C22.5868 33.0112 23.8048 31.5382 24.9684 29.9661L22.9793 28.4939C21.8671 29.9966 20.7017 31.4061 19.5138 32.7148L21.3462 34.378ZM24.9684 29.9661C26.7632 27.5411 28.4302 24.8778 29.8503 22.003L27.6316 20.907C26.2829 23.6373 24.6953 26.1754 22.9793 28.4939L24.9684 29.9661ZM35.1833 31.1799C33.6326 29.308 29.1577 26.0504 23.555 28.0657L24.3926 30.3943C28.6363 28.8678 32.093 31.3286 33.2775 32.7585L35.1833 31.1799ZM42.8524 30.9355C43.5146 25.6844 42.4219 20.4848 40.6633 15.5432C38.9087 10.6132 36.4475 5.82976 34.3168 1.46124L32.0926 2.54608C34.2591 6.98788 36.6364 11.609 38.3319 16.3729C40.0232 21.1254 40.992 25.9091 40.3972 30.6259L42.8524 30.9355Z" fill="#1A1A1A"/>
</svg>
